<?xml version="1.0" standalone="no"?>
<!DOCTYPE svg PUBLIC "-//W3C//DTD SVG 20010904//EN"
 "http://www.w3.org/TR/2001/REC-SVG-20010904/DTD/svg10.dtd">
<svg version="1.0" xmlns="http://www.w3.org/2000/svg"
 width="533.000000pt" height="332.000000pt" viewBox="0 0 533.000000 332.000000"
 preserveAspectRatio="xMidYMid meet">

<g transform="translate(0.000000,332.000000) scale(0.100000,-0.100000)"
fill="#000000" stroke="none">
<path d="M0 1660 l0 -1660 2665 0 2665 0 0 1660 0 1660 -2665 0 -2665 0 0
-1660z m3597 264 c-3 -3 -12 -4 -19 -1 -8 3 -5 6 6 6 11 1 17 -2 13 -5z m443
-14 c0 -5 -4 -10 -10 -10 -5 0 -10 5 -10 10 0 6 5 10 10 10 6 0 10 -4 10 -10z
m-75 -10 c-3 -5 -11 -10 -16 -10 -6 0 -7 5 -4 10 3 6 11 10 16 10 6 0 7 -4 4
-10z m142 4 c-3 -3 -12 -4 -19 -1 -8 3 -5 6 6 6 11 1 17 -2 13 -5z m-200 -43
c-6 -17 -14 -28 -19 -25 -4 3 -1 16 8 30 21 32 25 30 11 -5z m-167 -40 c0 -9
-7 -3 -15 13 -19 36 -19 47 0 22 8 -11 15 -27 15 -35z m439 9 c0 -10 -3 -8 -9
5 -12 27 -12 43 0 25 5 -8 9 -22 9 -30z m-746 10 c-3 -12 -8 -19 -11 -16 -5 6
5 36 12 36 2 0 2 -9 -1 -20z m97 16 c0 -2 -8 -10 -17 -17 -16 -13 -17 -12 -4
4 13 16 21 21 21 13z m443 -20 c-10 -13 -19 -23 -21 -21 -5 5 22 45 31 45 4 0
0 -11 -10 -24z m136 -25 c0 -14 -1 -14 -6 -1 -3 8 -13 24 -22 35 -16 20 -16
20 7 1 12 -11 22 -26 21 -35z m18 27 c-3 -8 -6 -5 -6 6 -1 11 2 17 5 13 3 -3
4 -12 1 -19z m-437 2 c0 -5 -5 -10 -11 -10 -5 0 -7 5 -4 10 3 6 8 10 11 10 2
0 4 -4 4 -10z m232 -12 c-7 -7 -12 -8 -12 -2 0 14 12 26 19 19 2 -3 -1 -11 -7
-17z m-30 -22 c7 4 8 2 4 -5 -10 -15 -26 -4 -25 17 1 15 2 15 6 -1 2 -9 9 -14
15 -11z m-401 -9 c-10 -9 -11 -8 -5 6 3 10 9 15 12 12 3 -3 0 -11 -7 -18z
m709 -29 c0 -5 -4 -8 -10 -8 -5 0 -10 10 -10 23 0 18 2 19 10 7 5 -8 10 -18
10 -22z m-333 0 c-3 -8 -6 -5 -6 6 -1 11 2 17 5 13 3 -3 4 -12 1 -19z m240 0
c-3 -8 -6 -5 -6 6 -1 11 2 17 5 13 3 -3 4 -12 1 -19z m-387 -53 c-14 -17 -40
-20 -40 -5 0 5 7 7 15 4 9 -4 18 1 21 10 4 9 9 15 12 12 3 -3 -1 -12 -8 -21z
m457 3 c-3 -8 -6 -5 -6 6 -1 11 2 17 5 13 3 -3 4 -12 1 -19z m-537 -13 c-7 -8
-22 -14 -34 -14 -19 2 -19 2 2 6 13 3 26 11 29 19 3 8 8 13 11 10 3 -3 -1 -12
-8 -21z m505 -5 c-3 -5 -10 -10 -16 -10 -5 0 -9 5 -9 10 0 6 7 10 16 10 8 0
12 -4 9 -10z m-55 -5 c0 -3 -9 -15 -20 -27 -22 -24 -26 -18 -8 12 12 19 28 27
28 15z m-865 -53 c-3 -3 -11 0 -18 7 -9 10 -8 11 6 5 10 -3 15 -9 12 -12z
m855 -6 c0 -3 -4 -8 -10 -11 -5 -3 -10 -1 -10 4 0 6 5 11 10 11 6 0 10 -2 10
-4z m-40 -16 c0 -5 -4 -10 -10 -10 -5 0 -10 5 -10 10 0 6 5 10 10 10 6 0 10
-4 10 -10z m-385 -10 c3 -5 1 -10 -4 -10 -6 0 -11 5 -11 10 0 6 2 10 4 10 3 0
8 -4 11 -10z m85 -18 c0 -15 -2 -15 -10 -2 -13 20 -13 33 0 25 6 -3 10 -14 10
-23z m350 3 c-7 -9 -15 -13 -17 -11 -6 6 20 36 26 30 2 -2 -2 -10 -9 -19z
m-417 -10 c-3 -9 -8 -14 -10 -11 -3 3 -2 9 2 15 9 16 15 13 8 -4z m378 -38
c-10 -9 -11 -8 -5 6 3 10 9 15 12 12 3 -3 0 -11 -7 -18z m-91 -8 c-7 -11 -14
-18 -17 -15 -3 3 0 12 7 21 18 21 23 19 10 -6z m-293 -41 c-3 -8 -6 -5 -6 6
-1 11 2 17 5 13 3 -3 4 -12 1 -19z m259 4 c0 -10 -6 -19 -13 -19 -8 0 -9 6 -2
19 5 10 11 18 12 18 2 0 3 -8 3 -18z m-201 -33 c11 -16 1 -19 -13 -3 -7 8 -8
14 -3 14 5 0 13 -5 16 -11z m-275 -5 c0 -8 -19 -13 -24 -6 -3 5 1 9 9 9 8 0
15 -2 15 -3z m760 -10 c0 -2 -7 -4 -15 -4 -8 0 -15 4 -15 10 0 5 7 7 15 4 8
-4 15 -8 15 -10z m-320 2 c0 -3 -4 -8 -10 -11 -5 -3 -10 -1 -10 4 0 6 5 11 10
11 6 0 10 -2 10 -4z m-180 -15 c0 -5 -7 -11 -14 -14 -10 -4 -13 -1 -9 9 6 15
23 19 23 5z"/>
</g>
</svg>
