<?xml version="1.0" standalone="no"?>
<!DOCTYPE svg PUBLIC "-//W3C//DTD SVG 20010904//EN"
 "http://www.w3.org/TR/2001/REC-SVG-20010904/DTD/svg10.dtd">
<svg version="1.0" xmlns="http://www.w3.org/2000/svg"
 width="152.000000pt" height="189.000000pt" viewBox="0 0 152.000000 189.000000"
 preserveAspectRatio="xMidYMid meet">
<metadata>
Created by potrace 1.15, written by Peter Selinger 2001-2017
</metadata>
<g transform="translate(0.000000,189.000000) scale(0.100000,-0.100000)"
fill="#000000" stroke="none">
<path d="M0 945 l0 -945 760 0 760 0 0 945 0 945 -760 0 -760 0 0 -945z m779
708 c102 -126 134 -167 192 -248 175 -242 311 -478 359 -625 32 -100 10 -244
-54 -352 -39 -66 -138 -173 -176 -191 -19 -9 -56 -28 -81 -42 -73 -40 -176
-58 -309 -52 -164 7 -250 40 -373 142 -128 106 -187 221 -193 374 -3 80 -1 93
35 182 42 107 97 207 209 379 62 97 222 318 257 356 5 6 28 34 50 62 22 28 43
51 47 52 4 0 21 -17 37 -37z"/>
<path d="M836 1398 c3 -13 13 -35 20 -49 19 -38 78 -201 104 -286 12 -40 25
-73 30 -73 17 0 31 30 25 57 l-6 28 21 -27 c17 -22 27 -27 48 -22 l27 5 -24
-21 c-21 -18 -22 -24 -13 -45 14 -31 6 -32 -18 -2 -12 15 -28 22 -49 21 -31
-1 -58 -14 -29 -14 16 0 31 -54 48 -182 21 -147 -12 -376 -66 -468 -10 -16
-15 -32 -12 -35 17 -17 123 64 157 118 34 57 61 156 61 229 0 66 -33 229 -64
315 -12 35 -13 44 -1 60 20 26 18 33 -9 33 -19 0 -28 10 -46 52 -27 62 -120
226 -163 286 -33 46 -52 55 -41 20z"/>
</g>
</svg>
